<svg width="30" height="16" viewBox="0 0 30 16" fill="none" xmlns="http://www.w3.org/2000/svg">
<mask id="path-1-inside-1_1_6" fill="white">
<path d="M15.0284 0.454545L12.6136 15H9.31818L5.34091 7.35795H5.25568L3.97727 15H0.0284091L2.44318 0.454545H5.79545L9.71591 8.06818H9.82955L11.0795 0.454545H15.0284ZM29.5526 5.90909H25.6037C25.6321 5.57292 25.6132 5.26989 25.5469 5C25.4806 4.73011 25.367 4.49811 25.206 4.30398C25.045 4.10511 24.8343 3.9536 24.5739 3.84943C24.3134 3.74526 24.0033 3.69318 23.6435 3.69318C22.9522 3.69318 22.3343 3.866 21.7898 4.21165C21.2453 4.55256 20.7931 5.04261 20.4332 5.68182C20.0734 6.31629 19.8177 7.07386 19.6662 7.95455C19.5336 8.80682 19.5289 9.51468 19.652 10.0781C19.7798 10.6416 20.0284 11.063 20.3977 11.3423C20.7718 11.6217 21.2571 11.7614 21.8537 11.7614C22.2514 11.7614 22.616 11.714 22.9474 11.6193C23.2836 11.5246 23.5819 11.3897 23.8423 11.2145C24.1075 11.0346 24.3324 10.8215 24.517 10.5753C24.7064 10.3243 24.8509 10.0473 24.9503 9.74432H28.9276C28.776 10.3598 28.5062 10.9896 28.1179 11.6335C27.7296 12.2727 27.2277 12.8622 26.6122 13.402C25.9967 13.937 25.2723 14.3703 24.4389 14.7017C23.6056 15.0331 22.6681 15.1989 21.6264 15.1989C20.2628 15.1989 19.0862 14.9006 18.0966 14.304C17.1117 13.7074 16.3968 12.8362 15.9517 11.6903C15.5114 10.5445 15.4238 9.14773 15.6889 7.5C15.9541 5.90909 16.4773 4.57623 17.2585 3.50142C18.0398 2.42661 18.9891 1.61695 20.1065 1.07244C21.224 0.527935 22.4124 0.255681 23.6719 0.255681C24.6236 0.255681 25.4759 0.381155 26.2287 0.632101C26.9863 0.883049 27.6231 1.25 28.1392 1.73295C28.66 2.21117 29.0436 2.80066 29.2898 3.50142C29.536 4.20218 29.6236 5.00473 29.5526 5.90909Z"/>
</mask>
<path d="M15.0284 0.454545L12.6136 15H9.31818L5.34091 7.35795H5.25568L3.97727 15H0.0284091L2.44318 0.454545H5.79545L9.71591 8.06818H9.82955L11.0795 0.454545H15.0284ZM29.5526 5.90909H25.6037C25.6321 5.57292 25.6132 5.26989 25.5469 5C25.4806 4.73011 25.367 4.49811 25.206 4.30398C25.045 4.10511 24.8343 3.9536 24.5739 3.84943C24.3134 3.74526 24.0033 3.69318 23.6435 3.69318C22.9522 3.69318 22.3343 3.866 21.7898 4.21165C21.2453 4.55256 20.7931 5.04261 20.4332 5.68182C20.0734 6.31629 19.8177 7.07386 19.6662 7.95455C19.5336 8.80682 19.5289 9.51468 19.652 10.0781C19.7798 10.6416 20.0284 11.063 20.3977 11.3423C20.7718 11.6217 21.2571 11.7614 21.8537 11.7614C22.2514 11.7614 22.616 11.714 22.9474 11.6193C23.2836 11.5246 23.5819 11.3897 23.8423 11.2145C24.1075 11.0346 24.3324 10.8215 24.517 10.5753C24.7064 10.3243 24.8509 10.0473 24.9503 9.74432H28.9276C28.776 10.3598 28.5062 10.9896 28.1179 11.6335C27.7296 12.2727 27.2277 12.8622 26.6122 13.402C25.9967 13.937 25.2723 14.3703 24.4389 14.7017C23.6056 15.0331 22.6681 15.1989 21.6264 15.1989C20.2628 15.1989 19.0862 14.9006 18.0966 14.304C17.1117 13.7074 16.3968 12.8362 15.9517 11.6903C15.5114 10.5445 15.4238 9.14773 15.6889 7.5C15.9541 5.90909 16.4773 4.57623 17.2585 3.50142C18.0398 2.42661 18.9891 1.61695 20.1065 1.07244C21.224 0.527935 22.4124 0.255681 23.6719 0.255681C24.6236 0.255681 25.4759 0.381155 26.2287 0.632101C26.9863 0.883049 27.6231 1.25 28.1392 1.73295C28.66 2.21117 29.0436 2.80066 29.2898 3.50142C29.536 4.20218 29.6236 5.00473 29.5526 5.90909Z" fill="black"/>
<path d="M15.0284 0.454545L16.0149 0.618319L16.2081 -0.545455H15.0284V0.454545ZM12.6136 15V16H13.4613L13.6001 15.1638L12.6136 15ZM9.31818 15L8.43113 15.4617L8.7113 16H9.31818V15ZM5.34091 7.35795L6.22796 6.89629L5.94779 6.35795H5.34091V7.35795ZM5.25568 7.35795V6.35795H4.40907L4.26939 7.19296L5.25568 7.35795ZM3.97727 15V16H4.82388L4.96357 15.165L3.97727 15ZM0.0284091 15L-0.958089 14.8362L-1.15129 16H0.0284091V15ZM2.44318 0.454545V-0.545455H1.59551L1.45668 0.290771L2.44318 0.454545ZM5.79545 0.454545L6.68451 -0.00325264L6.40532 -0.545455H5.79545V0.454545ZM9.71591 8.06818L8.82685 8.52598L9.10605 9.06818H9.71591V8.06818ZM9.82955 8.06818V9.06818H10.6788L10.8163 8.23019L9.82955 8.06818ZM11.0795 0.454545V-0.545455H10.2303L10.0928 0.292535L11.0795 0.454545ZM14.0419 0.290771L11.6271 14.8362L13.6001 15.1638L16.0149 0.618319L14.0419 0.290771ZM12.6136 14H9.31818V16H12.6136V14ZM10.2052 14.5383L6.22796 6.89629L4.45385 7.81962L8.43113 15.4617L10.2052 14.5383ZM5.34091 6.35795H5.25568V8.35795H5.34091V6.35795ZM4.26939 7.19296L2.99098 14.835L4.96357 15.165L6.24198 7.52295L4.26939 7.19296ZM3.97727 14H0.0284091V16H3.97727V14ZM1.01491 15.1638L3.42968 0.618319L1.45668 0.290771L-0.958089 14.8362L1.01491 15.1638ZM2.44318 1.45455H5.79545V-0.545455H2.44318V1.45455ZM4.9064 0.912343L8.82685 8.52598L10.605 7.61038L6.68451 -0.00325264L4.9064 0.912343ZM9.71591 9.06818H9.82955V7.06818H9.71591V9.06818ZM10.8163 8.23019L12.0663 0.616555L10.0928 0.292535L8.84276 7.90617L10.8163 8.23019ZM11.0795 1.45455H15.0284V-0.545455H11.0795V1.45455ZM29.5526 5.90909V6.90909H30.4771L30.5495 5.98738L29.5526 5.90909ZM25.6037 5.90909L24.6072 5.82488L24.5156 6.90909H25.6037V5.90909ZM25.5469 5L24.5757 5.23852L24.5757 5.23853L25.5469 5ZM25.206 4.30398L24.4287 4.93322L24.4362 4.94231L25.206 4.30398ZM24.5739 3.84943L24.2025 4.77791L24.5739 3.84943ZM21.7898 4.21165L22.3204 5.05925L22.3257 5.05591L21.7898 4.21165ZM20.4332 5.68182L21.3031 6.17516L21.3046 6.17239L20.4332 5.68182ZM19.6662 7.95455L18.6807 7.78499L18.6793 7.79291L18.6781 7.80084L19.6662 7.95455ZM19.652 10.0781L18.675 10.2916L18.6768 10.2994L19.652 10.0781ZM20.3977 11.3423L19.7944 12.1399L19.7994 12.1435L20.3977 11.3423ZM22.9474 11.6193L22.6763 10.6568L22.6727 10.6578L22.9474 11.6193ZM23.8423 11.2145L24.4005 12.0442L24.4038 12.042L23.8423 11.2145ZM24.517 10.5753L23.7189 9.97288L23.717 9.97528L24.517 10.5753ZM24.9503 9.74432V8.74432H24.226L24.0001 9.43255L24.9503 9.74432ZM28.9276 9.74432L29.8986 9.98334L30.2036 8.74432H28.9276V9.74432ZM28.1179 11.6335L28.9726 12.1527L28.9743 12.1499L28.1179 11.6335ZM26.6122 13.402L27.2683 14.1567L27.2715 14.1538L26.6122 13.402ZM24.4389 14.7017L24.0694 13.7725L24.0694 13.7725L24.4389 14.7017ZM18.0966 14.304L17.5785 15.1593L17.5803 15.1604L18.0966 14.304ZM15.9517 11.6903L15.0183 12.0491L15.0196 12.0524L15.9517 11.6903ZM15.6889 7.5L14.7025 7.3356L14.7016 7.34112L15.6889 7.5ZM20.1065 1.07244L20.5446 1.97139L20.5446 1.97139L20.1065 1.07244ZM26.2287 0.632101L25.9125 1.58079L25.9142 1.58138L26.2287 0.632101ZM28.1392 1.73295L27.4559 2.46315L27.4629 2.46955L28.1392 1.73295ZM29.2898 3.50142L30.2332 3.16993L30.2332 3.16993L29.2898 3.50142ZM29.5526 4.90909H25.6037V6.90909H29.5526V4.90909ZM26.6001 5.9933C26.6358 5.57126 26.6151 5.15664 26.518 4.76147L24.5757 5.23853C24.6113 5.38313 24.6284 5.57458 24.6072 5.82488L26.6001 5.9933ZM26.518 4.76148C26.4194 4.35997 26.2427 3.98756 25.9757 3.66564L24.4362 4.94231C24.4912 5.00866 24.5418 5.10026 24.5757 5.23852L26.518 4.76148ZM25.9832 3.67478C25.7046 3.33061 25.3486 3.08231 24.9453 2.92095L24.2025 4.77791C24.3199 4.82488 24.3854 4.87962 24.4287 4.93318L25.9832 3.67478ZM24.9453 2.92095C24.5385 2.75825 24.0961 2.69318 23.6435 2.69318V4.69318C23.9105 4.69318 24.0884 4.73228 24.2025 4.77791L24.9453 2.92095ZM23.6435 2.69318C22.7766 2.69318 21.9702 2.91265 21.2538 3.36738L22.3257 5.05591C22.6984 4.81936 23.1277 4.69318 23.6435 4.69318V2.69318ZM21.2591 3.36406C20.554 3.80554 19.9919 4.42732 19.5618 5.19125L21.3046 6.17239C21.5943 5.6579 21.9366 5.29957 22.3204 5.05923L21.2591 3.36406ZM19.5634 5.18848C19.1354 5.94312 18.8475 6.81525 18.6807 7.78499L20.6517 8.1241C20.7879 7.33248 21.0114 6.68945 21.3031 6.17516L19.5634 5.18848ZM18.6781 7.80084C18.535 8.72051 18.5159 9.56323 18.675 10.2916L20.6289 9.86467C20.5419 9.46613 20.5322 8.89312 20.6543 8.10825L18.6781 7.80084ZM18.6768 10.2994C18.8435 11.0341 19.1941 11.6858 19.7945 12.1399L21.001 10.5448C20.8627 10.4402 20.7162 10.2491 20.6272 9.85686L18.6768 10.2994ZM19.7994 12.1435C20.389 12.5839 21.1018 12.7614 21.8537 12.7614V10.7614C21.4124 10.7614 21.1545 10.6594 20.9961 10.5411L19.7994 12.1435ZM21.8537 12.7614C22.3304 12.7614 22.7889 12.7046 23.2222 12.5808L22.6727 10.6578C22.4431 10.7234 22.1725 10.7614 21.8537 10.7614V12.7614ZM23.2186 12.5819C23.6455 12.4616 24.0427 12.2849 24.4005 12.0442L23.2842 10.3848C23.1211 10.4945 22.9218 10.5876 22.6763 10.6568L23.2186 12.5819ZM24.4038 12.042C24.7567 11.8025 25.0633 11.5136 25.317 11.1753L23.717 9.97528C23.6015 10.1294 23.4583 10.2666 23.2808 10.387L24.4038 12.042ZM25.3152 11.1777C25.5719 10.8376 25.7672 10.4622 25.9004 10.0561L24.0001 9.43255C23.9345 9.63253 23.841 9.81106 23.7189 9.97288L25.3152 11.1777ZM24.9503 10.7443H28.9276V8.74432H24.9503V10.7443ZM27.9565 9.5053C27.8331 10.0069 27.6072 10.5438 27.2615 11.1172L28.9743 12.1499C29.4051 11.4353 29.719 10.7128 29.8986 9.98334L27.9565 9.5053ZM27.2632 11.1144C26.9326 11.6587 26.499 12.1712 25.9529 12.6501L27.2715 14.1538C27.9565 13.5532 28.5267 12.8868 28.9726 12.1527L27.2632 11.1144ZM25.9562 12.6473C25.4337 13.1014 24.8084 13.4785 24.0694 13.7725L24.8085 15.6309C25.7361 15.262 26.5597 14.7726 27.2683 14.1567L25.9562 12.6473ZM24.0694 13.7725C23.371 14.0503 22.5617 14.1989 21.6264 14.1989V16.1989C22.7745 16.1989 23.8402 16.016 24.8085 15.6309L24.0694 13.7725ZM21.6264 14.1989C20.4116 14.1989 19.4205 13.9345 18.6129 13.4476L17.5803 15.1604C18.7518 15.8667 20.1139 16.1989 21.6264 16.1989V14.1989ZM18.6147 13.4487C17.8316 12.9743 17.2548 12.2834 16.8839 11.3283L15.0196 12.0524C15.5387 13.389 16.3918 14.4405 17.5785 15.1593L18.6147 13.4487ZM16.8851 11.3316C16.5269 10.3994 16.4294 9.19254 16.6762 7.65888L14.7016 7.34112C14.4181 9.10291 14.4958 10.6896 15.0183 12.0491L16.8851 11.3316ZM16.6753 7.6644C16.9203 6.19427 17.3949 5.01466 18.0674 4.08938L16.4496 2.91346C15.5597 4.1378 14.9878 5.62392 14.7025 7.3356L16.6753 7.6644ZM18.0674 4.08938C18.7592 3.13764 19.5845 2.43925 20.5446 1.97139L19.6685 0.173491C18.3938 0.794654 17.3203 1.71558 16.4496 2.91346L18.0674 4.08938ZM20.5446 1.97139C21.5237 1.49428 22.5621 1.25568 23.6719 1.25568V-0.744319C22.2627 -0.744319 20.9242 -0.438414 19.6685 0.173491L20.5446 1.97139ZM23.6719 1.25568C24.5369 1.25568 25.2796 1.36982 25.9125 1.58078L26.5449 -0.316582C25.6721 -0.607513 24.7103 -0.744319 23.6719 -0.744319V1.25568ZM25.9142 1.58138C26.5523 1.79272 27.0583 2.09106 27.4559 2.46312L28.8225 1.00279C28.1879 0.408937 27.4203 -0.0266181 26.5431 -0.317173L25.9142 1.58138ZM27.4629 2.46955C27.8566 2.83106 28.1517 3.27899 28.3463 3.83291L30.2332 3.16993C29.9354 2.32233 29.4635 1.59128 28.8155 0.996356L27.4629 2.46955ZM28.3463 3.83291C28.5373 4.37658 28.6181 5.03526 28.5556 5.8308L30.5495 5.98738C30.6291 4.9742 30.5346 4.02777 30.2332 3.16993L28.3463 3.83291Z" fill="#641D83" mask="url(#path-1-inside-1_1_6)"/>
</svg>
